<mxfile host="drawio-plugin" modified="2021-10-21T16:51:34.376Z" agent="5.0 (X11; Linux x86_64) AppleWebKit/537.36 (KHTML, like Gecko) Chrome/87.0.4280.141 Safari/537.36" version="14.7.4" etag="cemfAeAOiq0NXFkbppKi" type="embed" pages="2"><diagram id="AE4FOjLIIjP9BR-ICS6r" name="layout"><mxGraphModel dx="1378" dy="720" grid="1" gridSize="10" guides="1" tooltips="1" connect="1" arrows="1" fold="1" page="1" pageScale="1" pageWidth="850" pageHeight="1100" math="0" shadow="0"><root><mxCell id="0"/><mxCell id="1" parent="0"/><mxCell id="2" value="navbar" style="rounded=0;whiteSpace=wrap;html=1;" vertex="1" parent="1"><mxGeometry x="40" y="80" width="760" height="40" as="geometry"/></mxCell><mxCell id="3" value="search" style="rounded=0;whiteSpace=wrap;html=1;fillColor=#fff2cc;strokeColor=#d6b656;" vertex="1" parent="1"><mxGeometry x="370" y="130" width="120" height="40" as="geometry"/></mxCell><mxCell id="4" value="notifications" style="rounded=0;whiteSpace=wrap;html=1;fillColor=#dae8fc;strokeColor=#6c8ebf;" vertex="1" parent="1"><mxGeometry x="550" y="130" width="70" height="40" as="geometry"/></mxCell><mxCell id="5" value="help" style="rounded=0;whiteSpace=wrap;html=1;fillColor=#dae8fc;strokeColor=#6c8ebf;" vertex="1" parent="1"><mxGeometry x="630" y="130" width="50" height="40" as="geometry"/></mxCell><mxCell id="6" value="setings" style="rounded=0;whiteSpace=wrap;html=1;fillColor=#dae8fc;strokeColor=#6c8ebf;" vertex="1" parent="1"><mxGeometry x="690" y="130" width="50" height="40" as="geometry"/></mxCell><mxCell id="7" value="user" style="rounded=0;whiteSpace=wrap;html=1;fillColor=#dae8fc;strokeColor=#6c8ebf;" vertex="1" parent="1"><mxGeometry x="750" y="130" width="50" height="40" as="geometry"/></mxCell><mxCell id="8" value="logout" style="rounded=0;whiteSpace=wrap;html=1;fillColor=#e1d5e7;strokeColor=#9673a6;" vertex="1" parent="1"><mxGeometry x="750" y="180" width="50" height="40" as="geometry"/></mxCell><mxCell id="9" value="logo" style="rounded=0;whiteSpace=wrap;html=1;fillColor=#dae8fc;strokeColor=#6c8ebf;" vertex="1" parent="1"><mxGeometry x="40" y="130" width="60" height="40" as="geometry"/></mxCell><mxCell id="10" value="projects" style="rounded=0;whiteSpace=wrap;html=1;fillColor=#dae8fc;strokeColor=#6c8ebf;" vertex="1" parent="1"><mxGeometry x="110" y="130" width="60" height="40" as="geometry"/></mxCell><mxCell id="11" value="users" style="rounded=0;whiteSpace=wrap;html=1;fillColor=#dae8fc;strokeColor=#6c8ebf;" vertex="1" parent="1"><mxGeometry x="180" y="130" width="60" height="40" as="geometry"/></mxCell><mxCell id="12" value="sidebar" style="rounded=0;whiteSpace=wrap;html=1;" vertex="1" parent="1"><mxGeometry x="40" y="250" width="200" height="330" as="geometry"/></mxCell><mxCell id="13" value="content" style="rounded=0;whiteSpace=wrap;html=1;" vertex="1" parent="1"><mxGeometry x="250" y="250" width="550" height="330" as="geometry"/></mxCell><mxCell id="14" value="create issue" style="rounded=0;whiteSpace=wrap;html=1;fillColor=#dae8fc;strokeColor=#6c8ebf;" vertex="1" parent="1"><mxGeometry x="250" y="130" width="60" height="40" as="geometry"/></mxCell><mxCell id="15" value="board" style="rounded=0;whiteSpace=wrap;html=1;fillColor=#dae8fc;strokeColor=#6c8ebf;" vertex="1" parent="1"><mxGeometry x="60" y="360" width="60" height="40" as="geometry"/></mxCell><mxCell id="16" value="backlog" style="rounded=0;whiteSpace=wrap;html=1;fillColor=#dae8fc;strokeColor=#6c8ebf;" vertex="1" parent="1"><mxGeometry x="60" y="310" width="60" height="40" as="geometry"/></mxCell><mxCell id="17" value="image" style="rounded=0;whiteSpace=wrap;html=1;" vertex="1" parent="1"><mxGeometry x="50" y="260" width="50" height="30" as="geometry"/></mxCell><mxCell id="18" value="project name" style="rounded=0;whiteSpace=wrap;html=1;" vertex="1" parent="1"><mxGeometry x="110" y="260" width="50" height="30" as="geometry"/></mxCell><mxCell id="31" value="search" style="rounded=0;whiteSpace=wrap;html=1;fillColor=#e1d5e7;strokeColor=#9673a6;" vertex="1" parent="1"><mxGeometry x="490" y="130" width="50" height="40" as="geometry"/></mxCell><mxCell id="33" value="layout" style="rounded=0;whiteSpace=wrap;html=1;fillColor=#ffff88;strokeColor=#36393d;fontStyle=1" vertex="1" parent="1"><mxGeometry x="40" y="40" width="90" height="30" as="geometry"/></mxCell><mxCell id="34" value="navigation button" style="rounded=0;whiteSpace=wrap;html=1;fillColor=#dae8fc;strokeColor=#6c8ebf;" vertex="1" parent="1"><mxGeometry x="850" y="120" width="80" height="40" as="geometry"/></mxCell><mxCell id="35" value="submit button" style="rounded=0;whiteSpace=wrap;html=1;fillColor=#e1d5e7;strokeColor=#9673a6;" vertex="1" parent="1"><mxGeometry x="850" y="160" width="80" height="40" as="geometry"/></mxCell><mxCell id="36" value="input" style="rounded=0;whiteSpace=wrap;html=1;fillColor=#fff2cc;strokeColor=#d6b656;" vertex="1" parent="1"><mxGeometry x="850" y="200" width="80" height="40" as="geometry"/></mxCell><mxCell id="37" value="complex input" style="rounded=0;whiteSpace=wrap;html=1;fillColor=#ffe6cc;strokeColor=#d79b00;" vertex="1" parent="1"><mxGeometry x="850" y="240" width="80" height="40" as="geometry"/></mxCell><mxCell id="38" value="legend" style="rounded=0;whiteSpace=wrap;html=1;" vertex="1" parent="1"><mxGeometry x="850" y="80" width="80" height="40" as="geometry"/></mxCell></root></mxGraphModel></diagram><diagram id="L0vSd1opFdLHpcMbHw0s" name="add form"><mxGraphModel dx="1378" dy="720" grid="1" gridSize="10" guides="1" tooltips="1" connect="1" arrows="1" fold="1" page="1" pageScale="1" pageWidth="850" pageHeight="1100" math="0" shadow="0"><root><mxCell id="jGoNuqEtruFSjyPVqyAC-0"/><mxCell id="jGoNuqEtruFSjyPVqyAC-1" parent="jGoNuqEtruFSjyPVqyAC-0"/><mxCell id="jGoNuqEtruFSjyPVqyAC-2" value="add task form" style="rounded=0;whiteSpace=wrap;html=1;" vertex="1" parent="jGoNuqEtruFSjyPVqyAC-1"><mxGeometry x="40" y="80" width="550" height="330" as="geometry"/></mxCell><mxCell id="jGoNuqEtruFSjyPVqyAC-3" value="project" style="rounded=0;whiteSpace=wrap;html=1;fillColor=#ffe6cc;strokeColor=#d79b00;" vertex="1" parent="jGoNuqEtruFSjyPVqyAC-1"><mxGeometry x="60" y="110" width="120" height="40" as="geometry"/></mxCell><mxCell id="jGoNuqEtruFSjyPVqyAC-4" value="issue type" style="rounded=0;whiteSpace=wrap;html=1;fillColor=#ffe6cc;strokeColor=#d79b00;" vertex="1" parent="jGoNuqEtruFSjyPVqyAC-1"><mxGeometry x="60" y="160" width="120" height="40" as="geometry"/></mxCell><mxCell id="jGoNuqEtruFSjyPVqyAC-5" value="summary" style="rounded=0;whiteSpace=wrap;html=1;fillColor=#fff2cc;strokeColor=#d6b656;" vertex="1" parent="jGoNuqEtruFSjyPVqyAC-1"><mxGeometry x="60" y="210" width="120" height="40" as="geometry"/></mxCell><mxCell id="jGoNuqEtruFSjyPVqyAC-6" value="description" style="rounded=0;whiteSpace=wrap;html=1;fillColor=#fff2cc;strokeColor=#d6b656;" vertex="1" parent="jGoNuqEtruFSjyPVqyAC-1"><mxGeometry x="60" y="260" width="120" height="40" as="geometry"/></mxCell><mxCell id="jGoNuqEtruFSjyPVqyAC-7" value="assignee" style="rounded=0;whiteSpace=wrap;html=1;fillColor=#ffe6cc;strokeColor=#d79b00;" vertex="1" parent="jGoNuqEtruFSjyPVqyAC-1"><mxGeometry x="60" y="310" width="120" height="40" as="geometry"/></mxCell><mxCell id="jGoNuqEtruFSjyPVqyAC-8" value="priority" style="rounded=0;whiteSpace=wrap;html=1;fillColor=#fff2cc;strokeColor=#d6b656;" vertex="1" parent="jGoNuqEtruFSjyPVqyAC-1"><mxGeometry x="200" y="110" width="120" height="40" as="geometry"/></mxCell><mxCell id="jGoNuqEtruFSjyPVqyAC-9" value="sprint" style="rounded=0;whiteSpace=wrap;html=1;fillColor=#ffe6cc;strokeColor=#d79b00;" vertex="1" parent="jGoNuqEtruFSjyPVqyAC-1"><mxGeometry x="200" y="160" width="120" height="40" as="geometry"/></mxCell><mxCell id="jGoNuqEtruFSjyPVqyAC-10" value="story points" style="rounded=0;whiteSpace=wrap;html=1;fillColor=#fff2cc;strokeColor=#d6b656;" vertex="1" parent="jGoNuqEtruFSjyPVqyAC-1"><mxGeometry x="340" y="110" width="120" height="40" as="geometry"/></mxCell><mxCell id="jGoNuqEtruFSjyPVqyAC-11" value="cancel" style="rounded=0;whiteSpace=wrap;html=1;fillColor=#dae8fc;strokeColor=#6c8ebf;" vertex="1" parent="jGoNuqEtruFSjyPVqyAC-1"><mxGeometry x="460" y="350" width="50" height="40" as="geometry"/></mxCell><mxCell id="jGoNuqEtruFSjyPVqyAC-12" value="save" style="rounded=0;whiteSpace=wrap;html=1;fillColor=#e1d5e7;strokeColor=#9673a6;" vertex="1" parent="jGoNuqEtruFSjyPVqyAC-1"><mxGeometry x="520" y="350" width="50" height="40" as="geometry"/></mxCell><mxCell id="jGoNuqEtruFSjyPVqyAC-13" value="form header" style="rounded=0;whiteSpace=wrap;html=1;" vertex="1" parent="jGoNuqEtruFSjyPVqyAC-1"><mxGeometry x="200" y="310" width="100" height="40" as="geometry"/></mxCell><mxCell id="jGoNuqEtruFSjyPVqyAC-14" value="add task form" style="rounded=0;whiteSpace=wrap;html=1;fillColor=#ffff88;strokeColor=#36393d;fontStyle=1" vertex="1" parent="jGoNuqEtruFSjyPVqyAC-1"><mxGeometry x="40" y="50" width="90" height="30" as="geometry"/></mxCell></root></mxGraphModel></diagram></mxfile>